# xmcd CD database file
#
# Track frame offsets:
#	150
#	18248
#	38384
#	50715
#	67450
#	96172
#	116644
#	130437
#	166341
#	198221
#	216923
#	239712
#
# Disc length: 3266 seconds
#
# Revision: 0
# Processed by: cddbd v1.5.2PL0 Copyright (c) Steve Scherf et al.
# Submitted via: CDex 1.51
#
DISCID=b20cc00c
DTITLE=Bos, Ruud-Jan - Bos and Van Bemmel
DYEAR=1990
DGENRE=Jazz
TTITLE0=Invasion Of The Muffins
TTITLE1=Simone, Francois En Andere Verhalen
TTITLE2=L.A. Smartlap
TTITLE3=Salad
TTITLE4=Sfix
TTITLE5=Go South
TTITLE6=Jehoedie
TTITLE7=Zuiderbad
TTITLE8=De Gele Rivier (Jangtsetjiang)
TTITLE9=How Do I Get There?
TTITLE10=Babies and Gentlemen
TTITLE11=Epiloog
EXTD=YEAR: 1990
EXTT0=
EXTT1=
EXTT2=
EXTT3=
EXTT4=
EXTT5=
EXTT6=
EXTT7=
EXTT8=
EXTT9=
EXTT10=
EXTT11=
PLAYORDER=
